<mxfile host="app.diagrams.net" modified="2023-08-02T06:50:14.531Z" agent="Mozilla/5.0 (X11; Linux x86_64) AppleWebKit/537.36 (KHTML, like Gecko) Chrome/115.0.0.0 Safari/537.36" version="21.6.1" etag="PVCn2RulTCq1pP_FSzxM" type="github">
  <diagram name="第 1 页" id="Go2duudIu8bAD1XsvrN5">
    <mxGraphModel>
      <root>
        <mxCell id="0" />
        <mxCell id="1" parent="0" />
      </root>
    </mxGraphModel>
  </diagram>
</mxfile>
